<svg width="194" height="110" viewBox="0 0 194 110" fill="none" xmlns="http://www.w3.org/2000/svg">
<path d="M78.0229 0.257291C76.8765 0.536177 76.1769 0.974428 75.5745 1.831C75.2636 2.24934 75.1664 2.66767 75.1858 3.64378C75.2054 5.81511 77.0124 9.00239 80.6462 13.345C83.9884 17.349 90.8089 23.7237 94.8507 26.6519C97.7266 28.7236 98.0375 28.8233 96.308 27.13C92.2856 23.1858 88.4188 17.4686 87.525 14.2016C87.4084 13.7634 87.3112 12.8869 87.3112 12.2693C87.3112 11.2733 87.389 11.0343 87.9135 10.4367C89.0989 9.04222 91.1198 8.96254 95.181 10.1578C96.6967 10.596 104.605 13.6637 104.858 13.9028C104.955 13.9825 103.964 14.7196 102.682 15.5163L100.33 16.9905L103.187 17.2295C111.018 17.9068 120.131 20.0383 127.146 22.8671C128.409 23.365 128.331 23.2853 126.174 21.7714C120.209 17.5483 113.039 10.9147 108.686 5.57606C107.792 4.46052 107.034 3.58402 107.015 3.60393C106.995 3.62385 107.112 4.839 107.267 6.31311C107.423 7.76732 107.501 9.0223 107.442 9.08206C107.384 9.14182 105.732 8.46453 103.77 7.56811C90.3231 1.45252 82.3173 -0.818415 78.0229 0.257291Z" fill="white"/>
<path d="M11.1975 22.7476C7.89409 23.4049 5.60117 24.5604 3.658 26.5525C2.14234 28.1062 0.937575 30.2974 0.335196 32.6282C-0.111732 34.3613 -0.111732 37.8473 0.335196 39.5804C1.63711 44.5407 5.01821 48.0068 9.91498 49.4013C11.2558 49.7996 11.8776 49.8395 15.4141 49.8195C18.5037 49.7996 19.7668 49.72 21.0493 49.4411L22.701 49.0626L23.6143 46.3734C24.1195 44.8992 24.5275 43.6243 24.5275 43.5446C24.5469 43.4649 23.9057 43.704 23.1479 44.0824C20.4274 45.3573 19.0672 45.676 16.3858 45.676C14.3065 45.676 13.8013 45.5964 12.8491 45.2179C10.4785 44.2419 8.59363 41.6721 8.03011 38.6641C7.71921 37.0506 7.87467 32.668 8.28272 31.3334C9.04055 28.9031 10.634 27.17 12.5577 26.6321C13.6848 26.3134 16.2691 26.3731 17.6488 26.7517C18.2705 26.9309 19.3393 27.3493 20 27.7079L21.1853 28.3652L21.1076 26.4728C21.0688 25.417 20.9911 24.1819 20.9327 23.7437L20.8356 22.9269L19.6307 22.7874C16.7938 22.5085 12.5771 22.4687 11.1975 22.7476Z" fill="white"/>
<path d="M140.671 25.7952C140.223 28.6835 137.153 31.8311 134.821 31.8311C134.355 31.8311 134.336 31.8908 134.336 33.1258V34.4206H136.629L136.707 40.3371C136.765 45.636 136.804 46.3531 137.133 47.0104C138.164 49.1817 140.632 50.1579 144.304 49.8591L146.112 49.7196L147.744 46.373H147.102C145.975 46.373 144.945 45.9547 144.207 45.1777L143.468 44.4208V34.5801L145.1 34.6398C146.306 34.6995 146.831 34.8191 147.102 35.0582C147.316 35.2573 147.549 35.4168 147.607 35.4168C147.686 35.4168 147.744 34.3808 147.744 33.1258V30.8349H143.468V25.058H140.806L140.671 25.7952Z" fill="white"/>
<path d="M150.444 26.831C149.997 27.309 149.88 27.5879 149.88 28.305C149.88 29.062 149.977 29.2812 150.483 29.7194C151.63 30.7153 153.321 30.2174 153.689 28.7632C154.176 26.7711 151.863 25.3967 150.444 26.831Z" fill="white"/>
<path d="M33.8936 30.5363C29.6963 31.3131 26.8205 34.4009 26.257 38.7236C25.674 43.0663 27.4811 46.9706 30.9011 48.7236C34.3016 50.4965 39.2373 50.2575 42.3463 48.2058C45.3776 46.1738 46.6601 43.4447 46.4658 39.4406C46.3687 37.8271 46.2716 37.4088 45.6691 36.1539C44.5809 33.9028 42.424 31.9107 40.1311 31.0144C38.0325 30.2175 36.342 30.078 33.8936 30.5363ZM37.022 34.2215C38.0519 34.5203 38.8098 35.2375 39.3344 36.4527C39.762 37.4088 39.8008 37.7674 39.8008 40.4965C39.8008 43.2057 39.762 43.5642 39.3733 44.3014C38.5571 45.8551 37.6827 46.3331 35.9144 46.1938C33.913 46.0144 32.7083 43.5642 32.7083 39.62C32.7083 36.612 33.4856 34.9187 35.1371 34.3211C36.0893 33.9824 36.1282 33.9824 37.022 34.2215Z" fill="white"/>
<path d="M56.0262 30.5563C55.6375 30.6957 54.394 30.8153 53.2086 30.8153C52.0427 30.8352 50.6242 30.8949 50.0801 30.9547L49.0697 31.0941L49.5359 31.7714C49.7691 32.1499 50.0413 32.8272 50.0996 33.2854C50.1773 33.7435 50.1967 37.13 50.1578 40.7954L50.0996 47.4688L49.5555 48.405L49.0114 49.3612H58.2414L57.7167 48.8034C57.4253 48.4847 57.095 47.9269 56.9977 47.5484C56.784 46.8114 56.7257 37.7675 56.9395 36.5524C56.9977 36.0742 57.3086 35.5164 57.6779 35.0982C58.222 34.5205 58.4356 34.4208 59.1935 34.4208C60.2234 34.4208 61.1562 35.0982 61.5836 36.1539C61.9139 36.9308 61.9723 46.652 61.6613 47.7477C61.5642 48.1261 61.2921 48.6441 61.0395 48.9031L60.6315 49.3612H65.3728C68.4429 49.3413 69.9975 49.2815 69.8031 49.1619C69.6283 49.0624 69.3174 48.7237 69.1231 48.4249C68.7928 47.907 68.7538 47.3093 68.6567 41.393C68.5402 34.0622 68.5207 33.9428 66.9273 32.2694C65.8974 31.1937 64.6732 30.616 63.0215 30.4367C60.7675 30.1777 58.8632 30.6957 57.4253 31.9307L56.8228 32.4487L56.7063 30.2973L56.0262 30.5563Z" fill="white"/>
<path d="M78.9555 30.5762C78.5864 30.6957 77.3233 30.8152 76.138 30.8352C74.9721 30.8352 73.5341 30.8949 72.99 30.9547L71.9797 31.0941L72.4461 31.6518C72.6986 31.9706 72.9706 32.608 73.029 33.0862C73.0873 33.5444 73.1261 37.0304 73.0873 40.8153L73.029 47.6879L72.4848 48.5245L71.9601 49.3612H81.1707L80.6266 48.7835C79.8689 47.9867 79.6745 46.134 79.7717 40.6758C79.8495 36.5922 79.8883 36.2335 80.2769 35.5762C81.268 33.9228 83.386 34.0224 84.3575 35.7754C84.7657 36.5323 84.7851 36.7316 84.7851 42.0305C84.7851 47.4688 84.7851 47.5086 84.2993 48.4448L83.8329 49.3612H93.024L92.48 48.7835C92.1496 48.4448 91.8582 47.8273 91.7611 47.3293C91.6833 46.8512 91.6056 44.0225 91.5861 41.0344C91.5861 37.887 91.5084 35.2375 91.3724 34.7595C90.9449 33.0065 89.0795 31.114 87.2529 30.616C86.8449 30.5163 85.8344 30.3969 85.0183 30.3969C83.1528 30.377 81.6955 30.8352 80.685 31.7714L79.9466 32.4487L79.8495 31.7914C79.7911 31.4328 79.7134 30.9547 79.694 30.7355C79.6357 30.3571 79.5774 30.3571 78.9555 30.5762Z" fill="white"/>
<path d="M103.148 30.4764C98.6204 31.0541 95.1227 35.1379 95.1032 39.8989C95.0644 44.6398 97.5322 48.2256 101.593 49.381L102.759 49.6997L102.818 61.4328C102.856 67.887 102.818 73.6442 102.759 74.2217C102.682 74.919 102.468 75.4569 102.137 75.8553L101.652 76.4529H106.918L106.451 75.7358L105.965 74.9987V49.9587H106.918C108.608 49.9587 112.767 49.0423 112.767 48.6639C112.767 48.6241 113.116 47.608 113.544 46.3929L114.302 44.1817L113.194 44.7595C109.541 46.6519 105.771 46.7116 103.711 44.8988C102.74 44.0621 102.021 42.588 101.924 41.2534L101.846 40.1977H114.127V39.6399C114.107 38.4447 113.544 35.9147 113.077 34.9187C112.397 33.5043 111.251 32.2294 110.104 31.5721C108.317 30.5761 105.635 30.1577 103.148 30.4764ZM106.14 34.1218C106.743 34.4405 107.326 35.4964 107.326 36.2933V36.8111H101.729L101.924 36.0741C102.176 35.098 102.604 34.4605 103.226 34.1218C103.886 33.7434 105.46 33.7434 106.14 34.1218Z" fill="white"/>
<path d="M123.881 30.8349C119.801 31.9704 117.158 34.9386 116.633 38.9426C115.934 44.3012 119.237 48.863 124.484 49.7793C126.271 50.0781 129.128 49.8989 131.013 49.361C133.363 48.6838 133.363 48.6838 133.947 46.4526L134.472 44.4806L132.917 45.2773C131.421 46.0343 131.285 46.0742 129.498 46.0742C127.865 46.0742 127.515 46.0144 126.777 45.5761C125.824 45.0383 124.756 43.5841 124.425 42.4287C124.309 42.0304 124.153 41.0143 124.095 40.1977C123.726 35.1379 126.582 32.8469 130.994 34.6597L132.198 35.1777V33.0263C132.198 30.9745 132.179 30.8749 131.77 30.7553C131.518 30.6756 129.963 30.5761 128.312 30.5361C125.708 30.4366 125.106 30.4764 123.881 30.8349Z" fill="white"/>
<path d="M192.339 32.2493C191.698 32.349 189.424 32.3689 187.286 32.3092C182.798 32.1697 181.341 32.3888 179.378 33.4645C177.357 34.5601 176.328 36.5522 176.561 38.9028C176.619 39.4805 176.832 40.2972 177.046 40.7356C177.59 41.8112 178.97 43.0462 180.116 43.4846C181.224 43.9029 181.593 44.1817 181.069 44.1817C180.874 44.1817 180.35 44.4009 179.883 44.6798C178.912 45.2575 178.561 46.0542 178.873 46.9706C179.203 47.9866 179.825 48.1658 183.07 48.1658C187.189 48.1658 188.938 48.5842 190.066 49.7994C191.484 51.3531 190.668 53.8432 188.375 55.0384C185.188 56.6718 180.097 55.8552 178.639 53.4448C177.921 52.2695 178.309 50.397 179.281 50.3371C179.844 50.3172 178.658 49.9786 177.902 49.9786C175.316 49.9388 173.899 52.3292 175.258 54.4806C175.919 55.4966 177.551 56.6121 179.203 57.15C181.01 57.7476 185.324 57.907 187.482 57.4488C190.454 56.8113 192.572 55.4169 193.524 53.4448C194.224 51.9508 194.146 50.1778 193.33 49.0822C191.853 47.0902 189.852 46.3331 185.927 46.2734C182.506 46.2137 182.779 46.2535 182.526 45.7754C182.176 45.0981 182.837 44.6599 184.663 44.4009C188.492 43.8232 190.668 42.2893 191.289 39.7594C191.717 37.9267 190.862 36.094 188.938 34.7594C188.472 34.4407 188.55 34.4407 190.785 34.5402L193.117 34.6597L193.563 33.4844C193.797 32.8469 193.991 32.2493 193.991 32.1697C193.991 32.0104 193.972 32.0104 192.339 32.2493ZM185.809 34.9386C187.189 35.6558 187.831 36.6518 187.928 38.2852C188.064 40.357 187.131 41.6917 185.227 42.2096C183.361 42.7275 181.127 41.7515 180.253 40.0183C179.65 38.843 179.65 37.2096 180.253 36.1338C181.186 34.4208 183.731 33.8829 185.809 34.9386Z" fill="white"/>
<path d="M151.202 32.6878L149.531 32.867L149.939 33.6041C150.347 34.3013 150.367 34.5205 150.367 41.0942C150.367 47.7278 150.367 47.887 149.939 48.6043L149.512 49.3612H154.292L153.883 48.5046C153.495 47.7078 153.476 47.3492 153.418 40.0384C153.379 34.2814 153.301 32.4288 153.125 32.4487C152.99 32.4686 152.135 32.5682 151.202 32.6878Z" fill="white"/>
<path d="M159.189 32.7077L157.518 32.9269L157.925 33.4845C158.314 34.0224 158.334 34.2814 158.392 40.895C158.45 47.4887 158.431 47.7875 158.043 48.5643L157.653 49.3612H162.492L162.065 48.6043C161.656 47.887 161.637 47.6679 161.637 42.8871C161.637 38.1261 161.656 37.8671 162.065 37.0702C162.647 35.9747 163.288 35.4766 164.571 35.2176C167 34.6997 168.924 35.7157 169.546 37.8671C169.701 38.4249 169.798 40.1779 169.798 43.1859C169.798 47.4489 169.778 47.7078 169.371 48.5046L168.924 49.3612H173.781L173.335 48.5046C172.926 47.7078 172.907 47.3691 172.81 42.0902L172.713 36.5124L172.13 35.4169C171.042 33.385 168.924 32.2893 166.417 32.4686C164.959 32.5881 163.833 33.0861 162.492 34.2416L161.579 34.9985L161.462 34.2615C161.404 33.8631 161.346 33.2854 161.346 32.9667C161.346 32.648 161.249 32.4487 161.112 32.4487C160.976 32.4686 160.102 32.5881 159.189 32.7077Z" fill="white"/>
<path d="M40.7723 51.7516C38.285 52.1699 36.5361 52.9867 35.3508 54.3611C34.3404 55.4966 34.01 56.3732 34.01 58.0266C34.01 61.2337 35.312 62.668 40.5973 65.2976C45.2804 67.6283 46.3102 68.5845 46.3102 70.5764C46.3102 72.0705 45.6496 73.0067 43.9785 73.8832C42.8903 74.441 40.3641 74.6204 38.7514 74.2618C37.4495 73.9829 35.0399 72.8673 34.1267 72.1502C33.7574 71.8714 33.4271 71.6721 33.4077 71.692C33.3883 71.7318 33.5826 72.7278 33.8351 73.9231L34.3209 76.0547L35.5646 76.453C39.412 77.6682 44.1728 77.2499 46.9127 75.437C49.0696 74.0227 50.216 72.1702 50.352 69.8793C50.5075 66.7916 49.0696 65.2179 43.7841 62.7079C39.995 60.8951 38.9846 60.178 38.3433 58.8034C37.0414 56.0743 40.0144 53.7038 43.9591 54.3611C45.3387 54.5803 46.9709 55.2975 47.8648 56.0743L48.4477 56.5724V52.3891L47.1069 52.0704C45.397 51.672 42.288 51.5126 40.7723 51.7516Z" fill="white"/>
<path d="M163.482 51.9508C163.327 52.0503 162.375 52.1499 161.365 52.1499H159.518L160.044 52.7077C160.763 53.4647 160.898 54.5005 160.801 58.0464L160.724 61.0544L159.617 60.3771C158.159 59.4807 156.896 59.122 155.186 59.122C152.737 59.122 150.755 60.0185 149.064 61.8511C147.49 63.6042 146.771 65.5763 146.771 68.2059C146.771 72.1302 148.832 75.2378 152.251 76.4529C153.534 76.911 157.168 77.2297 157.576 76.911C157.692 76.8314 158.237 76.0545 158.801 75.1979L159.811 73.6442L158.975 74.1023C157.712 74.7795 155.399 74.7397 154.059 74.0226C150.853 72.3094 149.434 68.0863 150.95 64.7596C151.941 62.5285 153.767 61.393 156.041 61.5523C157.634 61.6719 158.722 62.1899 159.655 63.3053C160.724 64.5802 160.821 65.3174 160.84 71.2537L160.86 76.5525L165.504 76.6721L164.998 76.1143C164.707 75.8155 164.377 75.2975 164.279 74.9987C164.143 74.6202 164.066 70.6163 164.066 63.0863C164.066 56.8512 164.008 51.7515 163.93 51.7515C163.833 51.7515 163.639 51.8511 163.482 51.9508Z" fill="white"/>
<path d="M93.4709 55.4567C93.2766 58.126 92.2272 59.6798 90.0897 60.4168C89.468 60.636 89.3319 60.7754 89.293 61.2933L89.2348 61.9109H91.7803V67.1301C91.7803 73.2058 91.9358 74.1023 93.1793 75.5565C94.015 76.5126 95.2585 77.0504 96.677 77.0504C97.6875 77.0504 97.9984 76.8513 98.9117 75.6162L99.6889 74.5604H98.3677C97.3378 74.5604 96.9297 74.4608 96.5216 74.1421C95.0642 73.0464 94.87 72.0106 94.9282 66.2735L94.9865 62.0106L96.716 61.9507C98.0956 61.9109 98.5813 61.9706 99.1838 62.2694L99.9415 62.648V59.4208L97.4155 59.4806L94.8894 59.5602V53.9427H93.5874L93.4709 55.4567Z" fill="white"/>
<path d="M59.6793 59.421C57.1532 60.0783 54.6854 61.8911 53.6361 63.8631C52.5868 65.8552 52.2759 68.7637 52.9171 70.9151C53.2862 72.2298 54.627 74.0027 55.9484 74.9788C57.7361 76.2936 59.5238 76.8713 62.05 76.9908C64.2069 77.0903 66.7718 76.692 67.2188 76.2138C67.3353 76.0744 67.7823 75.2776 68.2291 74.441L69.0258 72.907L67.7434 73.5844C65.3922 74.7996 62.9632 74.9589 60.6508 74.0624C59.2517 73.5247 57.5612 71.9708 56.8422 70.5963C56.3759 69.68 56.3177 69.3613 56.3177 67.5884C56.3177 65.3373 56.6091 64.5007 57.9111 63.1859C59.8736 61.154 63.7793 60.9349 65.9945 62.7278L66.7135 63.3254V61.4528C66.7135 59.8392 66.6553 59.5404 66.3832 59.421C65.6836 59.1222 60.8257 59.1222 59.6793 59.421Z" fill="white"/>
<path d="M76.0409 59.441C74.3698 59.8992 72.9512 60.716 71.7659 61.9113C68.3459 65.3375 68.4043 71.0746 71.863 74.4412C76.7986 79.2221 85.3486 77.1105 87.35 70.5965C87.9525 68.6842 87.7776 66.0148 86.9808 64.2618C85.4457 60.9351 82.5505 59.1024 78.8002 59.1422C77.8674 59.1422 76.6238 59.2817 76.0409 59.441ZM80.6072 61.9909C81.8509 62.5686 83.0946 64.0028 83.6192 65.4172C85.0571 69.3813 83.5608 73.3455 80.2381 74.3615C77.1485 75.2978 74.3892 73.6443 73.2621 70.1981C72.7958 68.8036 72.8347 66.3932 73.3205 65.0586C73.7673 63.8037 74.9721 62.5089 76.2351 61.9312C77.4788 61.3535 79.3442 61.3734 80.6072 61.9909Z" fill="white"/>
<path d="M114.71 59.2615C114.243 59.3413 114.068 59.5603 112.32 62.3294L111.97 62.8672L113.388 62.2695C115.021 61.5524 117.139 61.3134 118.285 61.7119C120.597 62.4887 120.967 64.6799 118.946 65.6362C118.479 65.8552 116.983 66.2936 115.584 66.5924C114.204 66.8713 112.65 67.3095 112.145 67.5286C108.103 69.3016 108.822 75.2378 113.252 76.6322C114.535 77.0505 116.594 77.1701 117.255 76.8912C117.605 76.7318 119.47 74.4809 119.334 74.3614C119.295 74.3214 118.868 74.3813 118.402 74.4809C116.458 74.939 114.185 74.2816 113.485 73.0665C113.291 72.7477 113.155 72.0904 113.155 71.5127C113.155 70.0585 113.757 69.4011 115.545 68.8632C116.323 68.6442 117.663 68.2457 118.518 67.9668C119.393 67.7078 120.17 67.4888 120.228 67.4888C120.286 67.4888 120.345 69.0227 120.345 70.8952C120.345 74.0425 120.384 74.3614 120.772 75.0785C121.278 76.0147 122.657 76.7718 124.134 76.951L125.106 77.0706L126.543 74.7597L125.591 74.441C124.464 74.0626 124.076 73.7638 123.784 73.0665C123.687 72.7876 123.532 70.3174 123.473 67.5884C123.357 62.7477 123.337 62.5883 122.871 61.7119C121.919 59.9788 119.859 59.1022 116.847 59.1421C115.934 59.162 114.982 59.2217 114.71 59.2615Z" fill="white"/>
<path d="M131.227 59.3214C130.954 59.4011 129.963 59.4808 129.011 59.5007L127.282 59.5207L127.807 60.0186C128.079 60.2776 128.409 60.7358 128.506 61.0147C128.778 61.7318 128.759 74.2618 128.487 74.9988C128.389 75.2976 128.059 75.7957 127.768 76.0945L127.262 76.6523H133.462L132.937 76.1941C132.665 75.955 132.334 75.5566 132.217 75.3175C132.082 75.0386 132.004 73.0069 132.004 69.5207C132.004 64.3215 132.023 64.1422 132.45 63.2856C133.111 61.9709 134.181 61.4529 136.104 61.5725C138.046 61.672 138.785 62.1302 139.523 63.6641C140.068 64.7995 140.068 64.8194 140.126 69.461C140.165 72.0306 140.146 74.4211 140.068 74.7797C140.01 75.1383 139.698 75.716 139.368 76.0547L138.766 76.6523H141.855C144.79 76.6523 144.906 76.6324 144.538 76.2936C143.565 75.4571 143.565 75.5367 143.468 69.3016L143.371 63.4052L142.788 62.2099C141.758 60.1183 139.504 58.9828 136.687 59.1621C134.937 59.2617 134.024 59.6999 132.84 60.9349L132.004 61.7915V60.4569C132.004 59.7198 131.946 59.1222 131.868 59.1421C131.77 59.1621 131.498 59.2418 131.227 59.3214Z" fill="white"/>
<path d="M107.637 82.8873C112.922 87.9471 117.255 95.3176 116.75 98.3854C116.497 99.8396 115.137 100.756 113.194 100.756C112.048 100.756 109.696 100.238 107.637 99.5408C105.577 98.8436 99.32 96.3735 99.1062 96.1742C99.009 96.0946 100.019 95.3774 101.321 94.5607L103.711 93.0866L101.865 92.9471C93.471 92.2698 83.5804 90.0189 77.3817 87.4092C76.6044 87.0706 75.9437 86.8315 75.9048 86.8714C75.866 86.9112 76.4683 87.3893 77.2456 87.9073C83.4637 92.1105 91.0032 99.1225 95.8805 105.198C96.4635 105.915 96.9493 106.473 96.9881 106.453C97.027 106.393 96.7938 103.943 96.5217 101.792C96.4635 101.294 96.5023 100.955 96.619 100.955C96.7161 100.955 98.7759 101.852 101.185 102.927C111.931 107.808 118.732 109.959 123.454 109.999C126.058 110.019 127.088 109.72 128.137 108.605C128.759 107.947 128.798 107.828 128.798 106.573C128.798 105.457 128.681 104.999 128.079 103.704C126.641 100.597 123.998 97.1503 119.626 92.6882C115.487 88.4451 109.424 83.2857 106.898 81.8515C106.16 81.4331 106.257 81.5527 107.637 82.8873Z" fill="white"/>
</svg>
