<svg width="176" height="78" viewBox="0 0 176 78" fill="none" xmlns="http://www.w3.org/2000/svg">
<g clip-path="url(#clip0)">
<path d="M21.7068 23.8865H15.9615L6.35245 9.44819V23.8865H0.607178V0.365967H6.35245L15.9615 14.9374V0.365967H21.7068V23.8865Z" fill="white"/>
<path d="M41.3984 19.595H32.4949L31.0165 23.8865H24.969L33.6709 0.532227H40.2896L48.9915 23.8865H42.8767L41.3984 19.595ZM39.92 15.27L36.9634 6.62031L33.9732 15.27H39.92Z" fill="white"/>
<path d="M69.3006 0.365967V4.89044H62.8498V23.8865H57.0708V4.89044H50.6873V0.365967H69.3006Z" fill="white"/>
<path d="M78.4755 0.365967V23.8865H72.7302V0.365967H78.4755Z" fill="white"/>
<path d="M94.7389 0C96.9787 0 99.0058 0.521202 100.82 1.56361C102.657 2.58383 104.101 4.01437 105.154 5.8552C106.207 7.67387 106.733 9.7365 106.733 12.0431C106.733 14.3497 106.196 16.4234 105.121 18.2642C104.068 20.1052 102.623 21.5467 100.786 22.5891C98.9722 23.6093 96.9564 24.1194 94.7389 24.1194C92.5213 24.1194 90.4944 23.6093 88.6577 22.5891C86.8434 21.5467 85.3986 20.1052 84.3235 18.2642C83.2708 16.4234 82.7444 14.3497 82.7444 12.0431C82.7444 9.7365 83.2708 7.67387 84.3235 5.8552C85.3986 4.01437 86.8434 2.58383 88.6577 1.56361C90.4944 0.521202 92.5213 0 94.7389 0ZM94.7389 5.28965C92.8574 5.28965 91.3567 5.89956 90.2368 7.1194C89.1392 8.31706 88.5905 9.95829 88.5905 12.0431C88.5905 14.1057 89.1392 15.747 90.2368 16.9668C91.3567 18.1867 92.8574 18.7965 94.7389 18.7965C96.598 18.7965 98.0875 18.1867 99.2074 16.9668C100.327 15.747 100.887 14.1057 100.887 12.0431C100.887 9.98047 100.327 8.33924 99.2074 7.1194C98.1098 5.89956 96.6204 5.28965 94.7389 5.28965Z" fill="white"/>
<path d="M132.068 23.8865H126.323L116.714 9.44819V23.8865H110.969V0.365967H116.714L126.323 14.9374V0.365967H132.068V23.8865Z" fill="white"/>
<path d="M151.76 19.595H142.857L141.378 23.8865H135.331L144.033 0.532227H150.651L159.353 23.8865H153.238L151.76 19.595ZM150.282 15.27L147.325 6.62031L144.335 15.27H150.282Z" fill="white"/>
<path d="M168.339 19.5285H176V23.8865H162.594V0.365967H168.339V19.5285Z" fill="white"/>
<path d="M23.4287 29.5527V49.1702H18.6027V36.9023L14.3129 49.1702H10.136L5.81797 36.8743V49.1702H0.991943V29.5527H6.89041L12.2809 43.2178L17.5585 29.5527H23.4287Z" fill="white"/>
<path d="M32.5754 29.4131V40.8147C32.5754 42.1188 32.8671 43.1156 33.4503 43.8049C34.0523 44.4942 34.9178 44.8389 36.0468 44.8389C37.1757 44.8389 38.0317 44.4942 38.615 43.8049C39.2171 43.1156 39.5181 42.1188 39.5181 40.8147V29.4131H44.3441V40.8147C44.3441 42.6778 43.9772 44.2519 43.2434 45.5375C42.5096 46.8043 41.503 47.7637 40.2237 48.4158C38.963 49.0493 37.533 49.366 35.9339 49.366C34.3346 49.366 32.9235 49.0493 31.7004 48.4158C30.4776 47.7824 29.518 46.823 28.8219 45.5375C28.1257 44.2519 27.7776 42.6778 27.7776 40.8147V29.4131H32.5754Z" fill="white"/>
<path d="M63.0347 43.6093C63.0347 44.6526 62.7619 45.6121 62.2163 46.4877C61.6894 47.3632 60.8992 48.062 59.8455 48.5836C58.8107 49.1052 57.5501 49.3661 56.0638 49.3661C53.8248 49.3661 51.9809 48.8257 50.5322 47.7453C49.0834 46.6647 48.2932 45.1557 48.1615 43.218H53.298C53.3732 43.9633 53.6366 44.5502 54.0882 44.9787C54.5586 45.4072 55.1512 45.6214 55.8663 45.6214C56.4871 45.6214 56.9764 45.4537 57.3337 45.1183C57.6913 44.7831 57.87 44.3359 57.87 43.777C57.87 43.2739 57.7007 42.8548 57.3619 42.5194C57.0422 42.184 56.6376 41.914 56.1485 41.7091C55.6593 41.4855 54.9819 41.2246 54.1164 40.9266C52.8558 40.4981 51.821 40.0883 51.0119 39.697C50.2217 39.2872 49.535 38.6909 48.9517 37.9085C48.3872 37.1074 48.105 36.0734 48.105 34.8065C48.105 33.6328 48.4061 32.6175 49.0081 31.7605C49.6103 30.9035 50.4381 30.2515 51.4917 29.8043C52.5641 29.3386 53.7872 29.1057 55.1606 29.1057C57.3808 29.1057 59.14 29.6273 60.4382 30.6706C61.7552 31.714 62.4985 33.1484 62.6678 34.9742H57.4467C57.3526 34.3221 57.108 33.8098 56.7128 33.4373C56.3366 33.046 55.8192 32.8504 55.1606 32.8504C54.5961 32.8504 54.1353 32.9994 53.7777 33.2976C53.4391 33.5956 53.2698 34.0334 53.2698 34.6109C53.2698 35.0766 53.4203 35.4772 53.7213 35.8126C54.0412 36.1293 54.4363 36.3901 54.9066 36.595C55.377 36.7999 56.0543 37.0607 56.9387 37.3774C58.2181 37.806 59.2622 38.2345 60.0713 38.663C60.8803 39.0728 61.5765 39.6783 62.1597 40.4794C62.7431 41.2805 63.0347 42.3238 63.0347 43.6093Z" fill="white"/>
<path d="M71.6575 33.2136V37.3494H78.4027V40.9545H71.6575V45.3418H79.2493V49.1703H66.8315V29.4131H79.2493V33.2136H71.6575Z" fill="white"/>
<path d="M87.8039 29.4131V40.8147C87.8039 42.1188 88.0956 43.1156 88.6788 43.8049C89.281 44.4942 90.1465 44.8389 91.2753 44.8389C92.4042 44.8389 93.2602 44.4942 93.8436 43.8049C94.4456 43.1156 94.7466 42.1188 94.7466 40.8147V29.4131H99.5727V40.8147C99.5727 42.6778 99.2058 44.2519 98.4721 45.5375C97.7383 46.8043 96.7317 47.7637 95.4522 48.4158C94.1917 49.0493 92.7617 49.366 91.1624 49.366C89.5632 49.366 88.152 49.0493 86.9291 48.4158C85.7061 47.7824 84.7465 46.823 84.0504 45.5375C83.3542 44.2519 83.0061 42.6778 83.0061 40.8147V29.4131H87.8039Z" fill="white"/>
<path d="M126.363 29.5527V49.1702H121.537V36.9023L117.247 49.1702H113.07L108.752 36.8743V49.1702H103.926V29.5527H109.825L115.215 43.2178L120.493 29.5527H126.363Z" fill="white"/>
<path d="M147.651 29.1057C149.532 29.1057 151.235 29.5435 152.759 30.4192C154.302 31.2761 155.516 32.4778 156.4 34.0241C157.284 35.5518 157.726 37.2843 157.726 39.222C157.726 41.1595 157.275 42.9013 156.372 44.4477C155.487 45.994 154.274 47.205 152.731 48.0805C151.207 48.9375 149.513 49.3661 147.651 49.3661C145.788 49.3661 144.085 48.9375 142.543 48.0805C141.019 47.205 139.805 45.994 138.902 44.4477C138.018 42.9013 137.575 41.1595 137.575 39.222C137.575 37.2843 138.018 35.5518 138.902 34.0241C139.805 32.4778 141.019 31.2761 142.543 30.4192C144.085 29.5435 145.788 29.1057 147.651 29.1057ZM147.651 33.549C146.07 33.549 144.81 34.0613 143.869 35.086C142.947 36.0921 142.486 37.4707 142.486 39.222C142.486 40.9546 142.947 42.3332 143.869 43.3578C144.81 44.3825 146.07 44.8949 147.651 44.8949C149.212 44.8949 150.464 44.3825 151.404 43.3578C152.345 42.3332 152.816 40.9546 152.816 39.222C152.816 37.4893 152.345 36.1106 151.404 35.086C150.482 34.0613 149.231 33.549 147.651 33.549Z" fill="white"/>
<path d="M175.141 29.4131V33.2136H166.957V37.5451H173.279V41.1781H166.957V49.1703H162.131V29.4131H175.141Z" fill="white"/>
<path d="M16.707 71.558C16.707 72.7254 16.4017 73.799 15.7911 74.7789C15.2015 75.7588 14.3172 76.5406 13.1382 77.1244C11.9802 77.7081 10.5695 78 8.90617 78C6.40065 78 4.33728 77.3953 2.71607 76.1861C1.09485 74.977 0.210548 73.2883 0.0631643 71.12H5.81111C5.89533 71.954 6.1901 72.6108 6.69542 73.0902C7.22179 73.5697 7.88501 73.8096 8.6851 73.8096C9.37991 73.8096 9.92733 73.6219 10.3274 73.2467C10.7274 72.8713 10.9274 72.371 10.9274 71.7455C10.9274 71.1826 10.7379 70.7136 10.359 70.3383C10.001 69.963 9.54834 69.6608 9.00092 69.4313C8.45349 69.1813 7.69552 68.8894 6.727 68.5558C5.31633 68.0763 4.15831 67.6177 3.25297 67.1797C2.36867 66.7212 1.60016 66.0539 0.947465 65.1784C0.315822 64.2819 0 63.1249 0 61.7072C0 60.3937 0.336877 59.2575 1.01063 58.2985C1.68439 57.3396 2.6108 56.6098 3.78985 56.1094C4.98998 55.5883 6.35854 55.3276 7.89554 55.3276C10.38 55.3276 12.3486 55.9115 13.8014 57.0789C15.2752 58.2465 16.1069 59.8516 16.2965 61.8948H10.4537C10.3484 61.1651 10.0747 60.5918 9.63256 60.1749C9.21147 59.7371 8.63246 59.5182 7.89554 59.5182C7.2639 59.5182 6.74805 59.6849 6.34801 60.0185C5.96902 60.3521 5.77953 60.8419 5.77953 61.4883C5.77953 62.0095 5.94797 62.4577 6.28485 62.833C6.64278 63.1874 7.08493 63.4793 7.6113 63.7086C8.13767 63.9379 8.89564 64.2299 9.88522 64.5843C11.3169 65.0637 12.4855 65.5432 13.3908 66.0227C14.2962 66.4815 15.0752 67.1589 15.7279 68.0555C16.3806 68.952 16.707 70.1194 16.707 71.558Z" fill="white"/>
<path d="M30.8413 55.4529C33.6837 55.4529 36.0313 56.1929 37.8841 57.6733C39.758 59.1535 40.9686 61.1548 41.516 63.6775H35.7996C35.3785 62.6559 34.7259 61.8533 33.8416 61.2696C32.9784 60.6857 31.9467 60.3939 30.7465 60.3939C29.1673 60.3939 27.8936 60.9672 26.9251 62.1139C25.9567 63.2605 25.4723 64.7929 25.4723 66.7109C25.4723 68.6289 25.9567 70.1612 26.9251 71.3078C27.8936 72.4336 29.1673 72.9965 30.7465 72.9965C31.9467 72.9965 32.9784 72.7047 33.8416 72.121C34.7259 71.5371 35.3785 70.7449 35.7996 69.7443H41.516C40.9686 72.246 39.758 74.2475 37.8841 75.7485C36.0313 77.2287 33.6837 77.9689 30.8413 77.9689C28.6726 77.9689 26.7672 77.4997 25.1249 76.5616C23.4827 75.6026 22.2088 74.2683 21.3034 72.5588C20.4192 70.8491 19.9771 68.8999 19.9771 66.7109C19.9771 64.5218 20.4192 62.5725 21.3034 60.863C22.2088 59.1533 23.4827 57.8296 25.1249 56.8913C26.7672 55.9324 28.6726 55.4529 30.8413 55.4529Z" fill="white"/>
<path d="M56.1018 55.3276C58.2073 55.3276 60.1127 55.8176 61.8181 56.7975C63.5447 57.7565 64.9026 59.1012 65.8923 60.8315C66.8818 62.5412 67.3766 64.48 67.3766 66.6482C67.3766 68.8164 66.8712 70.7656 65.8607 72.4961C64.871 74.2264 63.513 75.5816 61.7866 76.5615C60.081 77.5204 58.1861 78 56.1018 78C54.0174 78 52.1118 77.5204 50.3854 76.5615C48.68 75.5816 47.3219 74.2264 46.3113 72.4961C45.3217 70.7656 44.8269 68.8164 44.8269 66.6482C44.8269 64.48 45.3217 62.5412 46.3113 60.8315C47.3219 59.1012 48.68 57.7565 50.3854 56.7975C52.1118 55.8176 54.0174 55.3276 56.1018 55.3276ZM56.1018 60.3C54.3332 60.3 52.9226 60.8733 51.8698 62.0199C50.8381 63.1457 50.3222 64.6885 50.3222 66.6482C50.3222 68.587 50.8381 70.1298 51.8698 71.2765C52.9226 72.4231 54.3332 72.9964 56.1018 72.9964C57.8493 72.9964 59.2494 72.4231 60.3022 71.2765C61.3549 70.1298 61.8813 68.587 61.8813 66.6482C61.8813 64.7093 61.3549 63.1665 60.3022 62.0199C59.2705 60.8733 57.8703 60.3 56.1018 60.3Z" fill="white"/>
<path d="M87.4018 55.6716V59.9246H81.3381V77.7811H75.9059V59.9246H69.9053V55.6716H87.4018Z" fill="white"/>
<path d="M96.0263 73.6844H103.227V77.7811H90.6257V55.6716H96.0263V73.6844Z" fill="white"/>
<path d="M120.488 73.7472H112.119L110.729 77.7812H105.044L113.224 55.8281H119.446L127.625 77.7812H121.877L120.488 73.7472ZM119.098 69.6817L116.319 61.551L113.508 69.6817H119.098Z" fill="white"/>
<path d="M150.505 77.7811H145.105L136.072 64.2089V77.7811H130.672V55.6716H136.072L145.105 69.3689V55.6716H150.505V77.7811Z" fill="white"/>
<path d="M175.268 66.6794C175.268 68.8476 174.796 70.776 173.847 72.4647C172.922 74.1326 171.574 75.4357 169.806 76.3738C168.057 77.3119 165.994 77.7811 163.615 77.7811H155.183V55.6716H163.615C166.015 55.6716 168.09 56.1304 169.837 57.0477C171.584 57.965 172.922 59.2575 173.847 60.9254C174.796 62.5932 175.268 64.5113 175.268 66.6794ZM163.141 72.9964C165.246 72.9964 166.879 72.4439 168.036 71.3389C169.216 70.2341 169.806 68.6809 169.806 66.6794C169.806 64.678 169.216 63.1249 168.036 62.0199C166.879 60.915 165.246 60.3625 163.141 60.3625H160.583V72.9964H163.141Z" fill="white"/>
</g>
<defs>
<clipPath id="clip0">
<rect width="176" height="78" fill="white"/>
</clipPath>
</defs>
</svg>
