<svg  viewBox="0 0 179 40"  xmlns="http://www.w3.org/2000/svg">
<path d="M78.51 25.324L75.816 34H74.358L72.462 28.072C72.41 27.928 72.362 27.752 72.318 27.544C72.294 27.644 72.27 27.738 72.246 27.826C72.222 27.914 72.196 27.996 72.168 28.072L70.254 34H68.79L66.102 25.324H67.452C67.592 25.324 67.708 25.358 67.8 25.426C67.896 25.49 67.96 25.578 67.992 25.69L69.468 30.88C69.5 31.008 69.53 31.148 69.558 31.3C69.59 31.448 69.622 31.604 69.654 31.768C69.686 31.6 69.72 31.442 69.756 31.294C69.796 31.146 69.838 31.008 69.882 30.88L71.586 25.69C71.618 25.598 71.68 25.514 71.772 25.438C71.868 25.362 71.984 25.324 72.12 25.324H72.594C72.734 25.324 72.848 25.358 72.936 25.426C73.024 25.494 73.09 25.582 73.134 25.69L74.832 30.88C74.916 31.128 74.992 31.414 75.06 31.738C75.112 31.422 75.17 31.136 75.234 30.88L76.71 25.69C76.734 25.59 76.794 25.504 76.89 25.432C76.99 25.36 77.108 25.324 77.244 25.324H78.51ZM82.3954 26.608V29.014H85.4314V30.256H82.3954V32.71H86.2474V34H80.7754V25.324H86.2474V26.608H82.3954ZM92.1237 32.74C92.4237 32.74 92.6757 32.704 92.8797 32.632C93.0837 32.56 93.2457 32.464 93.3657 32.344C93.4897 32.224 93.5777 32.084 93.6297 31.924C93.6857 31.764 93.7137 31.594 93.7137 31.414C93.7137 31.226 93.6837 31.058 93.6237 30.91C93.5637 30.758 93.4697 30.63 93.3417 30.526C93.2137 30.418 93.0477 30.336 92.8437 30.28C92.6437 30.224 92.4017 30.196 92.1177 30.196H90.4917V32.74H92.1237ZM90.4917 26.572V29.08H91.7757C92.3277 29.08 92.7437 28.98 93.0237 28.78C93.3077 28.58 93.4497 28.262 93.4497 27.826C93.4497 27.374 93.3217 27.052 93.0657 26.86C92.8097 26.668 92.4097 26.572 91.8657 26.572H90.4917ZM91.8657 25.324C92.4337 25.324 92.9197 25.378 93.3237 25.486C93.7277 25.594 94.0577 25.748 94.3137 25.948C94.5737 26.148 94.7637 26.39 94.8837 26.674C95.0037 26.958 95.0637 27.278 95.0637 27.634C95.0637 27.838 95.0337 28.034 94.9737 28.222C94.9137 28.406 94.8197 28.58 94.6917 28.744C94.5677 28.904 94.4077 29.05 94.2117 29.182C94.0197 29.314 93.7897 29.426 93.5217 29.518C94.7137 29.786 95.3097 30.43 95.3097 31.45C95.3097 31.818 95.2397 32.158 95.0997 32.47C94.9597 32.782 94.7557 33.052 94.4877 33.28C94.2197 33.504 93.8897 33.68 93.4977 33.808C93.1057 33.936 92.6577 34 92.1537 34H88.8777V25.324H91.8657ZM106.714 26.902C106.666 26.986 106.614 27.048 106.558 27.088C106.506 27.124 106.44 27.142 106.36 27.142C106.276 27.142 106.184 27.112 106.084 27.052C105.988 26.988 105.872 26.918 105.736 26.842C105.6 26.766 105.44 26.698 105.256 26.638C105.076 26.574 104.862 26.542 104.614 26.542C104.39 26.542 104.194 26.57 104.026 26.626C103.858 26.678 103.716 26.752 103.6 26.848C103.488 26.944 103.404 27.06 103.348 27.196C103.292 27.328 103.264 27.474 103.264 27.634C103.264 27.838 103.32 28.008 103.432 28.144C103.548 28.28 103.7 28.396 103.888 28.492C104.076 28.588 104.29 28.674 104.53 28.75C104.77 28.826 105.016 28.908 105.268 28.996C105.52 29.08 105.766 29.18 106.006 29.296C106.246 29.408 106.46 29.552 106.648 29.728C106.836 29.9 106.986 30.112 107.098 30.364C107.214 30.616 107.272 30.922 107.272 31.282C107.272 31.674 107.204 32.042 107.068 32.386C106.936 32.726 106.74 33.024 106.48 33.28C106.224 33.532 105.91 33.732 105.538 33.88C105.166 34.024 104.74 34.096 104.26 34.096C103.984 34.096 103.712 34.068 103.444 34.012C103.176 33.96 102.918 33.884 102.67 33.784C102.426 33.684 102.196 33.564 101.98 33.424C101.764 33.284 101.572 33.128 101.404 32.956L101.878 32.182C101.918 32.126 101.97 32.08 102.034 32.044C102.098 32.004 102.166 31.984 102.238 31.984C102.338 31.984 102.446 32.026 102.562 32.11C102.678 32.19 102.816 32.28 102.976 32.38C103.136 32.48 103.322 32.572 103.534 32.656C103.75 32.736 104.008 32.776 104.308 32.776C104.768 32.776 105.124 32.668 105.376 32.452C105.628 32.232 105.754 31.918 105.754 31.51C105.754 31.282 105.696 31.096 105.58 30.952C105.468 30.808 105.318 30.688 105.13 30.592C104.942 30.492 104.728 30.408 104.488 30.34C104.248 30.272 104.004 30.198 103.756 30.118C103.508 30.038 103.264 29.942 103.024 29.83C102.784 29.718 102.57 29.572 102.382 29.392C102.194 29.212 102.042 28.988 101.926 28.72C101.814 28.448 101.758 28.114 101.758 27.718C101.758 27.402 101.82 27.094 101.944 26.794C102.072 26.494 102.256 26.228 102.496 25.996C102.736 25.764 103.032 25.578 103.384 25.438C103.736 25.298 104.14 25.228 104.596 25.228C105.108 25.228 105.58 25.308 106.012 25.468C106.444 25.628 106.812 25.852 107.116 26.14L106.714 26.902ZM118.154 29.662C118.154 30.298 118.048 30.888 117.836 31.432C117.628 31.972 117.332 32.44 116.948 32.836C116.564 33.232 116.102 33.542 115.562 33.766C115.022 33.986 114.422 34.096 113.762 34.096C113.106 34.096 112.508 33.986 111.968 33.766C111.428 33.542 110.964 33.232 110.576 32.836C110.192 32.44 109.894 31.972 109.682 31.432C109.47 30.888 109.364 30.298 109.364 29.662C109.364 29.026 109.47 28.438 109.682 27.898C109.894 27.354 110.192 26.884 110.576 26.488C110.964 26.092 111.428 25.784 111.968 25.564C112.508 25.34 113.106 25.228 113.762 25.228C114.202 25.228 114.616 25.28 115.004 25.384C115.392 25.484 115.748 25.628 116.072 25.816C116.396 26 116.686 26.226 116.942 26.494C117.202 26.758 117.422 27.054 117.602 27.382C117.782 27.71 117.918 28.066 118.01 28.45C118.106 28.834 118.154 29.238 118.154 29.662ZM116.504 29.662C116.504 29.186 116.44 28.76 116.312 28.384C116.184 28.004 116.002 27.682 115.766 27.418C115.53 27.154 115.242 26.952 114.902 26.812C114.566 26.672 114.186 26.602 113.762 26.602C113.338 26.602 112.956 26.672 112.616 26.812C112.28 26.952 111.992 27.154 111.752 27.418C111.516 27.682 111.334 28.004 111.206 28.384C111.078 28.76 111.014 29.186 111.014 29.662C111.014 30.138 111.078 30.566 111.206 30.946C111.334 31.322 111.516 31.642 111.752 31.906C111.992 32.166 112.28 32.366 112.616 32.506C112.956 32.646 113.338 32.716 113.762 32.716C114.186 32.716 114.566 32.646 114.902 32.506C115.242 32.366 115.53 32.166 115.766 31.906C116.002 31.642 116.184 31.322 116.312 30.946C116.44 30.566 116.504 30.138 116.504 29.662ZM125.853 32.668V34H120.771V25.324H122.385V32.668H125.853ZM131.463 32.698C131.775 32.698 132.053 32.646 132.297 32.542C132.545 32.438 132.753 32.292 132.921 32.104C133.089 31.916 133.217 31.688 133.305 31.42C133.397 31.152 133.443 30.852 133.443 30.52V25.324H135.057V30.52C135.057 31.036 134.973 31.514 134.805 31.954C134.641 32.39 134.403 32.768 134.091 33.088C133.783 33.404 133.407 33.652 132.963 33.832C132.519 34.008 132.019 34.096 131.463 34.096C130.903 34.096 130.401 34.008 129.957 33.832C129.513 33.652 129.135 33.404 128.823 33.088C128.515 32.768 128.277 32.39 128.109 31.954C127.945 31.514 127.863 31.036 127.863 30.52V25.324H129.477V30.514C129.477 30.846 129.521 31.146 129.609 31.414C129.701 31.682 129.831 31.912 129.999 32.104C130.171 32.292 130.379 32.438 130.623 32.542C130.871 32.646 131.151 32.698 131.463 32.698ZM144.138 26.65H141.522V34H139.908V26.65H137.292V25.324H144.138V26.65ZM148.093 34H146.473V25.324H148.093V34ZM159.51 29.662C159.51 30.298 159.404 30.888 159.192 31.432C158.984 31.972 158.688 32.44 158.304 32.836C157.92 33.232 157.458 33.542 156.918 33.766C156.378 33.986 155.778 34.096 155.118 34.096C154.462 34.096 153.864 33.986 153.324 33.766C152.784 33.542 152.32 33.232 151.932 32.836C151.548 32.44 151.25 31.972 151.038 31.432C150.826 30.888 150.72 30.298 150.72 29.662C150.72 29.026 150.826 28.438 151.038 27.898C151.25 27.354 151.548 26.884 151.932 26.488C152.32 26.092 152.784 25.784 153.324 25.564C153.864 25.34 154.462 25.228 155.118 25.228C155.558 25.228 155.972 25.28 156.36 25.384C156.748 25.484 157.104 25.628 157.428 25.816C157.752 26 158.042 26.226 158.298 26.494C158.558 26.758 158.778 27.054 158.958 27.382C159.138 27.71 159.274 28.066 159.366 28.45C159.462 28.834 159.51 29.238 159.51 29.662ZM157.86 29.662C157.86 29.186 157.796 28.76 157.668 28.384C157.54 28.004 157.358 27.682 157.122 27.418C156.886 27.154 156.598 26.952 156.258 26.812C155.922 26.672 155.542 26.602 155.118 26.602C154.694 26.602 154.312 26.672 153.972 26.812C153.636 26.952 153.348 27.154 153.108 27.418C152.872 27.682 152.69 28.004 152.562 28.384C152.434 28.76 152.37 29.186 152.37 29.662C152.37 30.138 152.434 30.566 152.562 30.946C152.69 31.322 152.872 31.642 153.108 31.906C153.348 32.166 153.636 32.366 153.972 32.506C154.312 32.646 154.694 32.716 155.118 32.716C155.542 32.716 155.922 32.646 156.258 32.506C156.598 32.366 156.886 32.166 157.122 31.906C157.358 31.642 157.54 31.322 157.668 30.946C157.796 30.566 157.86 30.138 157.86 29.662ZM169.441 25.324V34H168.613C168.485 34 168.377 33.98 168.289 33.94C168.205 33.896 168.123 33.824 168.043 33.724L163.513 27.94C163.537 28.204 163.549 28.448 163.549 28.672V34H162.127V25.324H162.973C163.041 25.324 163.099 25.328 163.147 25.336C163.199 25.34 163.243 25.352 163.279 25.372C163.319 25.388 163.357 25.414 163.393 25.45C163.429 25.482 163.469 25.526 163.513 25.582L168.061 31.39C168.049 31.25 168.039 31.112 168.031 30.976C168.023 30.84 168.019 30.714 168.019 30.598V25.324H169.441ZM177.193 26.902C177.145 26.986 177.093 27.048 177.037 27.088C176.985 27.124 176.919 27.142 176.839 27.142C176.755 27.142 176.663 27.112 176.563 27.052C176.467 26.988 176.351 26.918 176.215 26.842C176.079 26.766 175.919 26.698 175.735 26.638C175.555 26.574 175.341 26.542 175.093 26.542C174.869 26.542 174.673 26.57 174.505 26.626C174.337 26.678 174.195 26.752 174.079 26.848C173.967 26.944 173.883 27.06 173.827 27.196C173.771 27.328 173.743 27.474 173.743 27.634C173.743 27.838 173.799 28.008 173.911 28.144C174.027 28.28 174.179 28.396 174.367 28.492C174.555 28.588 174.769 28.674 175.009 28.75C175.249 28.826 175.495 28.908 175.747 28.996C175.999 29.08 176.245 29.18 176.485 29.296C176.725 29.408 176.939 29.552 177.127 29.728C177.315 29.9 177.465 30.112 177.577 30.364C177.693 30.616 177.751 30.922 177.751 31.282C177.751 31.674 177.683 32.042 177.547 32.386C177.415 32.726 177.219 33.024 176.959 33.28C176.703 33.532 176.389 33.732 176.017 33.88C175.645 34.024 175.219 34.096 174.739 34.096C174.463 34.096 174.191 34.068 173.923 34.012C173.655 33.96 173.397 33.884 173.149 33.784C172.905 33.684 172.675 33.564 172.459 33.424C172.243 33.284 172.051 33.128 171.883 32.956L172.357 32.182C172.397 32.126 172.449 32.08 172.513 32.044C172.577 32.004 172.645 31.984 172.717 31.984C172.817 31.984 172.925 32.026 173.041 32.11C173.157 32.19 173.295 32.28 173.455 32.38C173.615 32.48 173.801 32.572 174.013 32.656C174.229 32.736 174.487 32.776 174.787 32.776C175.247 32.776 175.603 32.668 175.855 32.452C176.107 32.232 176.233 31.918 176.233 31.51C176.233 31.282 176.175 31.096 176.059 30.952C175.947 30.808 175.797 30.688 175.609 30.592C175.421 30.492 175.207 30.408 174.967 30.34C174.727 30.272 174.483 30.198 174.235 30.118C173.987 30.038 173.743 29.942 173.503 29.83C173.263 29.718 173.049 29.572 172.861 29.392C172.673 29.212 172.521 28.988 172.405 28.72C172.293 28.448 172.237 28.114 172.237 27.718C172.237 27.402 172.299 27.094 172.423 26.794C172.551 26.494 172.735 26.228 172.975 25.996C173.215 25.764 173.511 25.578 173.863 25.438C174.215 25.298 174.619 25.228 175.075 25.228C175.587 25.228 176.059 25.308 176.491 25.468C176.923 25.628 177.291 25.852 177.595 26.14L177.193 26.902Z" />
<path d="M74.67 13.662C74.67 14.298 74.564 14.882 74.352 15.414C74.14 15.946 73.842 16.404 73.458 16.788C73.074 17.172 72.612 17.47 72.072 17.682C71.532 17.894 70.932 18 70.272 18H66.966V9.324H70.272C70.932 9.324 71.532 9.432 72.072 9.648C72.612 9.86 73.074 10.158 73.458 10.542C73.842 10.922 74.14 11.378 74.352 11.91C74.564 12.442 74.67 13.026 74.67 13.662ZM73.014 13.662C73.014 13.186 72.95 12.76 72.822 12.384C72.698 12.004 72.516 11.684 72.276 11.424C72.04 11.16 71.752 10.958 71.412 10.818C71.076 10.678 70.696 10.608 70.272 10.608H68.586V16.716H70.272C70.696 16.716 71.076 16.646 71.412 16.506C71.752 16.366 72.04 16.166 72.276 15.906C72.516 15.642 72.698 15.322 72.822 14.946C72.95 14.566 73.014 14.138 73.014 13.662ZM80.6253 14.64V18H79.0173V14.64L75.8553 9.324H77.2773C77.4173 9.324 77.5273 9.358 77.6073 9.426C77.6913 9.494 77.7613 9.58 77.8173 9.684L79.4013 12.582C79.4933 12.754 79.5733 12.916 79.6413 13.068C79.7133 13.22 79.7773 13.372 79.8333 13.524C79.8853 13.372 79.9453 13.22 80.0133 13.068C80.0813 12.916 80.1593 12.754 80.2473 12.582L81.8253 9.684C81.8693 9.596 81.9353 9.514 82.0233 9.438C82.1113 9.362 82.2233 9.324 82.3593 9.324H83.7873L80.6253 14.64ZM91.0825 16.668V18H86.0005V9.324H87.6145V16.668H91.0825ZM98.1389 14.724L97.0829 11.838C97.0309 11.71 96.9769 11.558 96.9209 11.382C96.8649 11.206 96.8089 11.016 96.7529 10.812C96.7009 11.016 96.6469 11.208 96.5909 11.388C96.5349 11.564 96.4809 11.718 96.4289 11.85L95.3789 14.724H98.1389ZM100.989 18H99.7409C99.6009 18 99.4869 17.966 99.3989 17.898C99.3109 17.826 99.2449 17.738 99.2009 17.634L98.5529 15.864H94.9589L94.3109 17.634C94.2789 17.726 94.2169 17.81 94.1249 17.886C94.0329 17.962 93.9189 18 93.7829 18H92.5229L95.9369 9.324H97.5809L100.989 18ZM110.521 9.324V18H109.693C109.565 18 109.457 17.98 109.369 17.94C109.285 17.896 109.203 17.824 109.123 17.724L104.593 11.94C104.617 12.204 104.629 12.448 104.629 12.672V18H103.207V9.324H104.053C104.121 9.324 104.179 9.328 104.227 9.336C104.279 9.34 104.323 9.352 104.359 9.372C104.399 9.388 104.437 9.414 104.473 9.45C104.509 9.482 104.549 9.526 104.593 9.582L109.141 15.39C109.129 15.25 109.119 15.112 109.111 14.976C109.103 14.84 109.099 14.714 109.099 14.598V9.324H110.521ZM127.419 9.324V18H125.997V12.396C125.997 12.172 126.009 11.93 126.033 11.67L123.411 16.596C123.287 16.832 123.097 16.95 122.841 16.95H122.613C122.357 16.95 122.167 16.832 122.043 16.596L119.391 11.652C119.403 11.784 119.413 11.914 119.421 12.042C119.429 12.17 119.433 12.288 119.433 12.396V18H118.011V9.324H119.229C119.301 9.324 119.363 9.326 119.415 9.33C119.467 9.334 119.513 9.344 119.553 9.36C119.597 9.376 119.635 9.402 119.667 9.438C119.703 9.474 119.737 9.522 119.769 9.582L122.367 14.4C122.435 14.528 122.497 14.66 122.553 14.796C122.613 14.932 122.671 15.072 122.727 15.216C122.783 15.068 122.841 14.926 122.901 14.79C122.961 14.65 123.025 14.516 123.093 14.388L125.655 9.582C125.687 9.522 125.721 9.474 125.757 9.438C125.793 9.402 125.831 9.376 125.871 9.36C125.915 9.344 125.963 9.334 126.015 9.33C126.067 9.326 126.129 9.324 126.201 9.324H127.419ZM138.949 13.662C138.949 14.298 138.843 14.888 138.631 15.432C138.423 15.972 138.127 16.44 137.743 16.836C137.359 17.232 136.897 17.542 136.357 17.766C135.817 17.986 135.217 18.096 134.557 18.096C133.901 18.096 133.303 17.986 132.763 17.766C132.223 17.542 131.759 17.232 131.371 16.836C130.987 16.44 130.689 15.972 130.477 15.432C130.265 14.888 130.159 14.298 130.159 13.662C130.159 13.026 130.265 12.438 130.477 11.898C130.689 11.354 130.987 10.884 131.371 10.488C131.759 10.092 132.223 9.784 132.763 9.564C133.303 9.34 133.901 9.228 134.557 9.228C134.997 9.228 135.411 9.28 135.799 9.384C136.187 9.484 136.543 9.628 136.867 9.816C137.191 10 137.481 10.226 137.737 10.494C137.997 10.758 138.217 11.054 138.397 11.382C138.577 11.71 138.713 12.066 138.805 12.45C138.901 12.834 138.949 13.238 138.949 13.662ZM137.299 13.662C137.299 13.186 137.235 12.76 137.107 12.384C136.979 12.004 136.797 11.682 136.561 11.418C136.325 11.154 136.037 10.952 135.697 10.812C135.361 10.672 134.981 10.602 134.557 10.602C134.133 10.602 133.751 10.672 133.411 10.812C133.075 10.952 132.787 11.154 132.547 11.418C132.311 11.682 132.129 12.004 132.001 12.384C131.873 12.76 131.809 13.186 131.809 13.662C131.809 14.138 131.873 14.566 132.001 14.946C132.129 15.322 132.311 15.642 132.547 15.906C132.787 16.166 133.075 16.366 133.411 16.506C133.751 16.646 134.133 16.716 134.557 16.716C134.981 16.716 135.361 16.646 135.697 16.506C136.037 16.366 136.325 16.166 136.561 15.906C136.797 15.642 136.979 15.322 137.107 14.946C137.235 14.566 137.299 14.138 137.299 13.662ZM149.96 13.662C149.96 14.298 149.854 14.888 149.642 15.432C149.434 15.972 149.138 16.44 148.754 16.836C148.37 17.232 147.908 17.542 147.368 17.766C146.828 17.986 146.228 18.096 145.568 18.096C144.912 18.096 144.314 17.986 143.774 17.766C143.234 17.542 142.77 17.232 142.382 16.836C141.998 16.44 141.7 15.972 141.488 15.432C141.276 14.888 141.17 14.298 141.17 13.662C141.17 13.026 141.276 12.438 141.488 11.898C141.7 11.354 141.998 10.884 142.382 10.488C142.77 10.092 143.234 9.784 143.774 9.564C144.314 9.34 144.912 9.228 145.568 9.228C146.008 9.228 146.422 9.28 146.81 9.384C147.198 9.484 147.554 9.628 147.878 9.816C148.202 10 148.492 10.226 148.748 10.494C149.008 10.758 149.228 11.054 149.408 11.382C149.588 11.71 149.724 12.066 149.816 12.45C149.912 12.834 149.96 13.238 149.96 13.662ZM148.31 13.662C148.31 13.186 148.246 12.76 148.118 12.384C147.99 12.004 147.808 11.682 147.572 11.418C147.336 11.154 147.048 10.952 146.708 10.812C146.372 10.672 145.992 10.602 145.568 10.602C145.144 10.602 144.762 10.672 144.422 10.812C144.086 10.952 143.798 11.154 143.558 11.418C143.322 11.682 143.14 12.004 143.012 12.384C142.884 12.76 142.82 13.186 142.82 13.662C142.82 14.138 142.884 14.566 143.012 14.946C143.14 15.322 143.322 15.642 143.558 15.906C143.798 16.166 144.086 16.366 144.422 16.506C144.762 16.646 145.144 16.716 145.568 16.716C145.992 16.716 146.372 16.646 146.708 16.506C147.048 16.366 147.336 16.166 147.572 15.906C147.808 15.642 147.99 15.322 148.118 14.946C148.246 14.566 148.31 14.138 148.31 13.662ZM160.012 9.324V18H159.184C159.056 18 158.948 17.98 158.86 17.94C158.776 17.896 158.694 17.824 158.614 17.724L154.084 11.94C154.108 12.204 154.12 12.448 154.12 12.672V18H152.698V9.324H153.544C153.612 9.324 153.67 9.328 153.718 9.336C153.77 9.34 153.814 9.352 153.85 9.372C153.89 9.388 153.928 9.414 153.964 9.45C154 9.482 154.04 9.526 154.084 9.582L158.632 15.39C158.62 15.25 158.61 15.112 158.602 14.976C158.594 14.84 158.59 14.714 158.59 14.598V9.324H160.012ZM164.884 10.608V13.014H167.92V14.256H164.884V16.71H168.736V18H163.264V9.324H168.736V10.608H164.884ZM175.212 14.64V18H173.604V14.64L170.442 9.324H171.864C172.004 9.324 172.114 9.358 172.194 9.426C172.278 9.494 172.348 9.58 172.404 9.684L173.988 12.582C174.08 12.754 174.16 12.916 174.228 13.068C174.3 13.22 174.364 13.372 174.42 13.524C174.472 13.372 174.532 13.22 174.6 13.068C174.668 12.916 174.746 12.754 174.834 12.582L176.412 9.684C176.456 9.596 176.522 9.514 176.61 9.438C176.698 9.362 176.81 9.324 176.946 9.324H178.374L175.212 14.64Z"/>
<path d="M25.0074 32.6626V39.7987C25.0074 39.8665 24.9517 39.9214 24.883 39.9214H0.12439C0.0556913 39.9214 0 39.8665 0 39.7987V32.6626V23.0429C0 22.9752 0.0556915 22.9202 0.12439 22.9202H0.965268H7.23205C7.30074 22.9202 7.35644 22.9752 7.35644 23.0429V32.6626V39.7987C7.35644 39.8665 7.41214 39.9214 7.48083 39.9214H8.19732C8.26601 39.9214 8.32171 39.8665 8.32171 39.7987V32.7853C8.32171 32.7175 8.37741 32.6626 8.4461 32.6626H17.5241C17.5928 32.6626 17.6485 32.6076 17.6485 32.5399V1.22301C17.6485 1.08843 17.8364 1.05201 17.888 1.17657L24.9982 18.3286C25.0042 18.3433 25.0074 18.3591 25.0074 18.375V32.6626Z"/>
<path d="M33.6482 18.9349C33.6607 18.9051 33.6607 18.8717 33.6482 18.8418L25.8651 0.132578C25.846 0.0865292 25.8007 0.0564575 25.7502 0.0564575H24.7538H18.6602C18.5717 0.0564575 18.5115 0.145028 18.5451 0.225771L25.0076 15.7473L29.873 27.4842C29.9153 27.586 30.0611 27.586 30.1033 27.4842L33.1278 20.189L33.6482 18.9349Z"/>
<path d="M43.4072 28.9448C43.4072 29.0125 43.463 29.0675 43.5316 29.0675H50.6393C50.7079 29.0675 50.7637 29.0125 50.7637 28.9448V0.89183C50.7637 0.757253 50.5758 0.720829 50.5241 0.845398L43.4164 17.9948C43.4105 18.0096 43.4072 18.0254 43.4072 18.0413V28.9448Z"/>
<path d="M49.8208 0.168867C49.8539 0.0881853 49.7937 0 49.7054 0H48.8105H43.4767H42.6174C42.5669 0 42.5214 0.0302336 42.5022 0.0764663L34.2071 20.1914L33.6673 21.4945L30.5978 28.8984C30.5642 28.9792 30.6244 29.0675 30.713 29.0675H31.4705H36.8044H36.8069H37.803C37.8535 29.0675 37.899 29.0373 37.9182 28.9912L43.407 15.7472L49.8208 0.168867Z"/>
<path d="M0.965268 22.0466H7.35644H8.32171H16.2454C16.3141 22.0466 16.3698 21.9917 16.3698 21.9239V15.6638V14.9129C16.3698 14.8451 16.3141 14.7902 16.2454 14.7902H0.124391C0.055692 14.7902 0 14.8451 0 14.9129V15.6638V21.9239C0 21.9917 0.0556915 22.0466 0.12439 22.0466H0.965268Z"/>
</svg>
