<svg  viewBox="0 0 19 14" fill="none" xmlns="http://www.w3.org/2000/svg">
<path fill-rule="evenodd" clip-rule="evenodd" d="M19 12.8333C19 13.4777 18.4683 14 17.8125 14H10.6875C10.0317 14 9.5 13.4777 9.5 12.8333C9.5 12.189 10.0317 11.6667 10.6875 11.6667H17.8125C18.4683 11.6667 19 12.189 19 12.8333Z" fill="white"/>
<path d="M1.1875 0H17.8125C18.4683 0 19 0.522335 19 1.16667C19 1.811 18.4683 2.33333 17.8125 2.33333H1.1875C0.531662 2.33333 9.63211e-07 1.811 9.63211e-07 1.16667C9.63211e-07 0.522335 0.53166 0 1.1875 0Z" fill="white"/>
<path d="M5.9375 5.83333H17.8125C18.4683 5.83333 19 6.35567 19 7C19 7.64433 18.4683 8.16667 17.8125 8.16667H5.9375C5.28166 8.16667 4.75 7.64433 4.75 7C4.75 6.35567 5.28166 5.83333 5.9375 5.83333Z" fill="white"/>
</svg>
